<svg width="19" height="18" viewBox="0 0 19 18" fill="none" xmlns="http://www.w3.org/2000/svg">
<path d="M10.2272 3.90904C10.2272 3.50737 9.90161 3.18176 9.49994 3.18176C9.09828 3.18176 8.77267 3.50737 8.77267 3.90904V8.27267H4.40904C4.00737 8.27267 3.68176 8.59828 3.68176 8.99994C3.68176 9.40161 4.00737 9.72722 4.40904 9.72722H8.77267V14.0909C8.77267 14.4925 9.09828 14.8181 9.49994 14.8181C9.90161 14.8181 10.2272 14.4925 10.2272 14.0909V9.72722H14.5909C14.9925 9.72722 15.3181 9.40161 15.3181 8.99994C15.3181 8.59828 14.9925 8.27267 14.5909 8.27267H10.2272V3.90904Z" fill="black"/>
</svg>
