<?xml version="1.0" encoding="utf-8"?>
<!-- Uploaded to: SVG Repo, www.svgrepo.com, Generator: SVG Repo Mixer Tools -->
<svg width="24px" height="24px" viewBox="0 0 24 24" id="Layer_1" data-name="Layer 1" xmlns="http://www.w3.org/2000/svg" xmlns:xlink="http://www.w3.org/1999/xlink">
<defs>
<style>.cls-1{fill: none;}.cls-2{clip-path:url(#clip-path);}</style>
<clipPath id="clip-path">
<rect class="cls-1" x="0.15" y="-0.06" width="24" height="24"/>
</clipPath>
</defs>
<title>apps</title>
<g class="cls-2" fill="#8F8F8F">
<path d="M9.15,11.26h-5A1.94,1.94,0,0,1,2.22,9.33v-5A1.94,1.94,0,0,1,4.15,2.4h5a1.94,1.94,0,0,1,1.93,1.93v5A1.94,1.94,0,0,1,9.15,11.26Zm-5-7.36a.44.44,0,0,0-.43.43v5a.43.43,0,0,0,.43.43h5a.43.43,0,0,0,.43-.43v-5a.43.43,0,0,0-.43-.43Z"/>
<path d="M19.85,11.26h-5a1.94,1.94,0,0,1-1.93-1.93v-5A1.94,1.94,0,0,1,14.85,2.4h5a1.94,1.94,0,0,1,1.93,1.93v5A1.94,1.94,0,0,1,19.85,11.26Zm-5-7.36a.43.43,0,0,0-.43.43v5a.43.43,0,0,0,.43.43h5a.43.43,0,0,0,.43-.43v-5a.44.44,0,0,0-.43-.43Z"/>
<path d="M9.15,21.6h-5a1.94,1.94,0,0,1-1.93-1.93v-5a1.94,1.94,0,0,1,1.93-1.93h5a1.94,1.94,0,0,1,1.93,1.93v5A1.94,1.94,0,0,1,9.15,21.6Zm-5-7.36a.43.43,0,0,0-.43.43v5a.44.44,0,0,0,.43.43h5a.43.43,0,0,0,.43-.43v-5a.43.43,0,0,0-.43-.43Z"/>
<path d="M19.85,21.6h-5a1.94,1.94,0,0,1-1.93-1.93v-5a1.94,1.94,0,0,1,1.93-1.93h5a1.94,1.94,0,0,1,1.93,1.93v5A1.94,1.94,0,0,1,19.85,21.6Zm-5-7.36a.43.43,0,0,0-.43.43v5a.43.43,0,0,0,.43.43h5a.44.44,0,0,0,.43-.43v-5a.43.43,0,0,0-.43-.43Z"/>
</g>
</svg>
