<?xml version="1.0" encoding="utf-8"?><!-- Uploaded to: SVG Repo, www.svgrepo.com, Generator: SVG Repo Mixer Tools -->
<svg width="800px" height="800px" viewBox="0 0 24 24" fill="none" xmlns="http://www.w3.org/2000/svg">
<path fill-rule="evenodd" clip-rule="evenodd" d="M12.4207 3.45395C13.5425 2.33208 15.3614 2.33208 16.4833 3.45395L20.546 7.51662C21.6679 8.63849 21.6679 10.4574 20.546 11.5793L17.1604 14.9648L19.8008 17.6052C20.1748 17.9792 20.1748 18.5855 19.8008 18.9594C19.4269 19.3334 18.8205 19.3334 18.4466 18.9594L16.0834 16.5962L15.674 18.8144C15.394 20.3314 13.5272 20.9118 12.4364 19.821L8.98476 16.3694L6.83948 18.5147C6.46552 18.8886 5.85922 18.8886 5.48526 18.5147C5.1113 18.1407 5.1113 17.5344 5.48525 17.1605L7.63054 15.0152L4.17891 11.5635C3.08815 10.4728 3.66858 8.60594 5.18551 8.32595L7.40369 7.91654L5.04048 5.55333C4.66652 5.17938 4.66652 4.57307 5.04048 4.19911C5.41444 3.82515 6.02075 3.82515 6.3947 4.19911L9.0351 6.83951L12.4207 3.45395ZM9.0351 9.54795L9.01673 9.56632L5.53313 10.2093L13.7906 18.4668L14.4336 14.9832L14.452 14.9648L9.0351 9.54795ZM15.8062 13.6106L10.3893 8.19373L13.7749 4.80818C14.1488 4.43422 14.7551 4.43422 15.1291 4.80818L19.1918 8.87084C19.5657 9.2448 19.5657 9.8511 19.1918 10.2251L15.8062 13.6106Z" fill="#ffffff"/>
</svg>
