<svg width="18" height="18" viewBox="0 0 18 18" fill="none" xmlns="http://www.w3.org/2000/svg">
<path d="M12.4233 1.94031C12.1393 1.65629 11.6788 1.65629 11.3948 1.94031C11.1108 2.22433 11.1108 2.68481 11.3948 2.96883L13.0624 4.63639L3.1818 4.63639C2.78014 4.63639 2.45453 4.962 2.45453 5.36366C2.45453 5.76532 2.78014 6.09093 3.1818 6.09093L13.0624 6.09093L11.3948 7.75849C11.1108 8.04251 11.1108 8.50299 11.3948 8.78701C11.6788 9.07103 12.1393 9.07103 12.4233 8.78701L15.3324 5.87792C15.6164 5.5939 15.6164 5.13342 15.3324 4.8494L12.4233 1.94031Z" fill="black"/>
<path d="M6.60515 10.2416C6.88917 9.95754 6.88917 9.49705 6.60515 9.21304C6.32113 8.92902 5.86065 8.92902 5.57663 9.21304L2.66754 12.1221C2.38352 12.4061 2.38352 12.8666 2.66754 13.1506L5.57663 16.0597C5.86065 16.3438 6.32113 16.3438 6.60515 16.0597C6.88917 15.7757 6.88917 15.3152 6.60515 15.0312L4.93759 13.3637H14.8182C15.2198 13.3637 15.5454 13.038 15.5454 12.6364C15.5454 12.2347 15.2198 11.9091 14.8182 11.9091H4.93759L6.60515 10.2416Z" fill="black"/>
</svg>
